<svg xmlns="http://www.w3.org/2000/svg" xmlns:xlink="http://www.w3.org/1999/xlink" width="988.907" height="759.679" viewBox="0 0 988.907 759.679">
  <defs>
    <linearGradient id="linear-gradient" x1="0.752" y1="1.031" x2="0.271" y2="0.031" gradientUnits="objectBoundingBox">
      <stop offset="0" stop-color="#26538a"/>
      <stop offset="1" stop-color="#1a91af"/>
    </linearGradient>
  </defs>
  <path id="União_1" data-name="União 1" d="M-993.322,200.693c-4.1-104.98,26.106-202.575,61.57-299.093,34.69-96.312,75.208-192.527,146.577-232.368,71.576-39.069,174.776-21.97,243.57,27.553,68.021,49.73,100.656,131.316,213.468,165.73C-215.119-102.3-23.11-115.628-5.944-76.306c16.186,38.758-141.9,129.183-212.632,230.18s-53.321,212.353-90.713,205.8c-36.826-7.536-128.658-133.758-238.787-124.139C-657.432,244.946-785.859,390.407-868.7,405.976a80.331,80.331,0,0,1-14.828,1.424C-956.144,407.413-990.01,300.121-993.322,200.693Zm493.6,166.386c-52.01-30.029-46.2-79.194-46.2-79.194s70.735-50.042,84.143,0c10.892,40.646,13.366,87.322-13.959,87.324C-482.048,375.209-489.955,372.716-499.72,367.079Z" transform="translate(993.695 352.279)" fill="url(#linear-gradient)"/>
</svg>
