<svg xmlns="http://www.w3.org/2000/svg" xmlns:xlink="http://www.w3.org/1999/xlink" width="453.966" height="307.487" viewBox="0 0 453.966 307.487">
  <defs>
    <linearGradient id="linear-gradient" x1="0.5" x2="0.5" y2="1" gradientUnits="objectBoundingBox">
      <stop offset="0" stop-color="#63fffa"/>
      <stop offset="1" stop-color="#0ad5f5"/>
    </linearGradient>
    <linearGradient id="linear-gradient-2" x1="0.5" y1="1" x2="0.5" gradientUnits="objectBoundingBox">
      <stop offset="0" stop-color="gray" stop-opacity="0.251"/>
      <stop offset="0.54" stop-color="gray" stop-opacity="0.122"/>
      <stop offset="1" stop-color="gray" stop-opacity="0.102"/>
    </linearGradient>
    <linearGradient id="linear-gradient-3" x1="0.495" y1="1.014" x2="0.495" y2="0" xlink:href="#linear-gradient-2"/>
    <linearGradient id="linear-gradient-4" x1="0.5" y1="1" x2="0.5" y2="0" xlink:href="#linear-gradient-2"/>
    <linearGradient id="linear-gradient-5" x1="0.5" y1="1" x2="0.5" y2="0" xlink:href="#linear-gradient-2"/>
  </defs>
  <g id="Grupo_18" data-name="Grupo 18" transform="translate(0.02 -0.02)">
    <circle id="Elipse_1" data-name="Elipse 1" cx="22.22" cy="22.22" r="22.22" transform="translate(23.237 9.35)" fill="url(#linear-gradient)"/>
    <path id="Caminho_12" data-name="Caminho 12" d="M184.883,196.043c9.33,21.073-2.571,45.338-16.58,63.61-4.689,6.127-9.865,12.551-10.515,20.236-.784,9.4,5.582,18.043,13.134,23.692a55.3,55.3,0,0,0,48.98,8.283c14.166-4.488,26.077-14.625,40.368-18.712,23.9-6.844,49.229,4.5,69.695,18.64,14.487,9.994,30,22.172,47.465,20.031,12.288-1.506,22.717-10.133,29.8-20.289,3.417-4.9,6.39-10.4,11.366-13.708a28.451,28.451,0,0,1,9.908-3.757c31.731-6.782,65.407,9.769,96.718,1.257,21.149-5.735,38.012-22.464,48.5-41.711s15.38-40.979,19.457-62.511c2.9-15.294,5.3-31.817-1.357-45.883-7.045-14.893-23.353-23.921-39.742-25.613s-32.826,2.978-47.924,9.564c-18.865,8.249-37.357,19.8-57.947,19.835-14.023.029-27.4-5.353-40.8-9.459-22.416-6.859-45.725-10.266-68.954-13.411-22.239-3.011-44.7-5.812-67.071-4.034-15.83,1.257-29.81,7.308-45.171,10.109-10.013,1.826-20.074.478-29.9,3.537-12.1,3.785-24.548,12.556-25.217,26.369C168.456,175.266,179.937,184.864,184.883,196.043Z" transform="translate(-142.142 -119.24)" fill="#63ffd4" opacity="0.1"/>
    <path id="Caminho_13" data-name="Caminho 13" d="M579.05,282.527c-2.041-5.32-7.3-17.823-10.768-15.342-4.378,3.135,4.378,16.986,4.378,16.986.249,2.543-4.674,7.834-7.313,10.472v-.33a1.148,1.148,0,0,1-.115.287l-.22-.12a1.432,1.432,0,0,1-.311.569,5.592,5.592,0,0,0-.024-.569c-.507,2.146-9.349,4.866-9.349,4.866h-.65c-2.457,0-8.852-.554-11.815-5.3a26.22,26.22,0,0,0-5.8-6.763,4.937,4.937,0,0,0-2.748-1.042,35.361,35.361,0,0,1-16.141-5.554l-.244-.167-.052.153c-.311-.444-.612-.918-.894-1.405h0l-.143-.263a12.006,12.006,0,0,0,6.62-10.677v-.249a8.179,8.179,0,0,0,1.1-4.1v-1.434l1.869-1.663a7.684,7.684,0,0,0,2.175-2.61,3.09,3.09,0,0,0,.229-1.338,2.318,2.318,0,0,0-.879-2.074c-1.434-.989-3.824,0-4.861-1.376-.478-.621-.392-1.467-.626-2.2-.478-1.486-2.2-2.289-3.79-2.313a16.374,16.374,0,0,0-4.646.989,27.276,27.276,0,0,1-9.894.927,6.462,6.462,0,0,0-2.71.1,3.733,3.733,0,0,0-2.2,2.557,6.015,6.015,0,0,0-.21,1.31,8.239,8.239,0,0,0-2.074,5.453v3.675a8.235,8.235,0,0,0,1.984,5.348,11.949,11.949,0,0,0,5,8.718v.292l.062.038a19.767,19.767,0,0,1-.526,3.379v-.244a34.545,34.545,0,0,1-13.861,3.647h-.789A5.338,5.338,0,0,0,485,286.6c-2.122,2-5.841,5.157-8.125,5.157-.478,0-12.541,2.356-14.539,2.748l-3.733-3.656-.115.215-.22-.215a9.067,9.067,0,0,0-1.214.177,28.931,28.931,0,0,1-6.62-14.6s8.254-9.4,5.219-18.162c-2.59-7.466-9.726,8.536-11.753,13.359a3.852,3.852,0,0,0-.124,2.653l6.706,21.613a10.138,10.138,0,0,0-.531,5.257h-.076l4.885,6.266a25.792,25.792,0,0,0,9.425,1.539,32.949,32.949,0,0,0,12.3-2.361h1.133l-.215.081h5.817l3.7,11.189c-.124,1.018-1.912,15.227-3.346,18.406a7.986,7.986,0,0,0-.564,3.346,25.54,25.54,0,0,0,1.066,6.476l3.241-.119-.124.253a168.694,168.694,0,0,0-10.037,25.016l-4.717,9.559,3.537,42.872h.143l.272.043h0c.382.057.956.143,1.711.239l-.277.478-7.8,12.9s-5.559,11.38,6.739,9.234c0,0,4.545-1.319,6.4-9.081l8.087-7.585s.378-5.038-1.912-7.05c-.143-2.328-.507-9.124.053-10.759.674-1.979-2.868-24.734-2.868-24.734s12.8-26.55,20.552-27.21a4.25,4.25,0,0,1,1.678.22c6.371,2.074,14.09,17.479,16.36,22.272h0l.105.22v.043l.086.186v.053l.077.163v.043l.067.148v.033l.057.119v.048l.043.091v.038l.029.067v.081h0l.024.057,1.008,29.848h0l.1.053h.048l-.086.617-.44,3.083s5.559,11.71,5.219,13.191,3.7,7.423,9.43,5.774,2.318-10.945,2.318-10.945l-5.516-11.366-.244-.507a10.834,10.834,0,0,0,1.549-1.152s-1.682-12.2,0-14.84,2.189-14.678,2.189-14.678-1.181-8.245-3.2-11.872L529.51,341c2.538,2.361,4.512,3.283,6.161,3.221h.272a4.115,4.115,0,0,0,2.074-.516,5.848,5.848,0,0,0,.956-.674,1.527,1.527,0,0,0,.158-.158h0c2.356-1.979-2.7-9.731-5.559-14.339-2.758-4.445,1.042-16.523,1.329-17.421a4.552,4.552,0,0,1,.817-.478,5.042,5.042,0,0,1,1.873-.406c2.743.1,6.118,1.673,10.3,2.466a48.574,48.574,0,0,0,8.789.684h.172c1.171,0,2.232-.024,3.092-.057a5.224,5.224,0,0,0,2.246-.607h0a6.784,6.784,0,0,0,1.6-1.29l7.332-8.283-.191.091a4.121,4.121,0,0,0,0-2.916l7.747-13.383A5.09,5.09,0,0,0,579.05,282.527Z" transform="translate(-291.382 -186.959)" fill="url(#linear-gradient-2)"/>
    <path id="Caminho_14" data-name="Caminho 14" d="M521.18,616.478l-7.8,7.48c-1.787,7.647-6.18,8.942-6.18,8.942-11.868,2.113-6.5-9.081-6.5-9.081l7.528-12.737.927-1.573s5.367-1.625,8.943-.65a3.061,3.061,0,0,1,1.219.66C521.548,611.465,521.18,616.478,521.18,616.478Z" transform="translate(-320.556 -374.673)" fill="#444176"/>
    <path id="Caminho_15" data-name="Caminho 15" d="M630.133,612.288c-5.53,1.625-9.43-4.225-9.081-5.692S616,593.6,616,593.6l.421-3.04.392-2.815,9.081.65.855,1.8,5.324,11.208S635.663,610.663,630.133,612.288Z" transform="translate(-381.385 -363.815)" fill="#444176"/>
    <path id="Caminho_16" data-name="Caminho 16" d="M528.94,610.765c-.855,1.467-7.791.727-11.17.268l.927-1.573s5.367-1.625,8.942-.65a3.056,3.056,0,0,1,1.219.66C528.906,610.263,528.94,610.765,528.94,610.765Z" transform="translate(-330.104 -374.646)" opacity="0.1"/>
    <path id="Caminho_17" data-name="Caminho 17" d="M627.208,590.177c-4.651,3.1-9.6.755-10.348.368l.392-2.815,9.081.65Z" transform="translate(-381.834 -363.804)" opacity="0.1"/>
    <path id="Caminho_18" data-name="Caminho 18" d="M571.028,490.082c-1.625,2.6,0,14.635,0,14.635-5.367,4.88-11.705,1.3-11.705,1.3l-.956-29.427S547.8,452.362,540.32,453.012s-19.835,26.827-19.835,26.827,3.413,22.435,2.763,24.376,0,11.38,0,11.38c-1.137,1.95-13,0-13,0L506.83,473.32l4.531-9.435a167.26,167.26,0,0,1,9.678-24.662c1.314-2.758,2.194-4.44,2.194-4.44l8.651-1.8,28.08-5.821,10.089,36.726c1.95,3.575,3.088,11.7,3.088,11.7S572.653,487.482,571.028,490.082Z" transform="translate(-324.393 -279.979)" fill="#565387"/>
    <g id="Grupo_12" data-name="Grupo 12" transform="translate(182.418 147.162)" opacity="0.1">
      <path id="Caminho_19" data-name="Caminho 19" d="M600.273,534.241l-.956-29.427s-10.568-24.227-18.047-23.577a4.072,4.072,0,0,0-.98.22c7.293,2.423,16.427,23.357,16.427,23.357l.956,29.427a11.471,11.471,0,0,0,6.467,1.18A11.5,11.5,0,0,1,600.273,534.241Z" transform="translate(-545.161 -455.365)"/>
      <path id="Caminho_20" data-name="Caminho 20" d="M512.8,515.589l-3.413-42.275,4.55-9.449a167.267,167.267,0,0,1,9.678-24.662c1.314-2.758,2.194-4.44,2.194-4.44l8.651-1.8,25.632-5.329-.139-.511-28.094,5.841-8.651,1.8s-.88,1.682-2.194,4.44a167.033,167.033,0,0,0-9.679,24.662l-4.55,9.43,3.413,42.275a61.064,61.064,0,0,0,10.324.832A76.828,76.828,0,0,1,512.8,515.589Z" transform="translate(-506.79 -427.12)"/>
    </g>
    <path id="Caminho_21" data-name="Caminho 21" d="M469.161,338.21s-9.267.478-7.967,10.242l2.6.325,3.9-4.225,1.95-3.575v-.813Z" transform="translate(-300.503 -233.543)" fill="#ced2df"/>
    <path id="Caminho_22" data-name="Caminho 22" d="M469.161,338.21s-9.267.478-7.967,10.242l2.6.325,3.9-4.225,1.95-3.575v-.813Z" transform="translate(-300.503 -233.543)" opacity="0.1"/>
    <path id="Caminho_23" data-name="Caminho 23" d="M693.193,345.69s7.647,4.063,5.692,8.78l-2.438.956-3.25-1.788-.478-4.225.325-2.925Z" transform="translate(-421.437 -237.448)" fill="#ced2df"/>
    <path id="Caminho_24" data-name="Caminho 24" d="M693.193,345.69s7.647,4.063,5.692,8.78l-2.438.956-3.25-1.788-.478-4.225.325-2.925Z" transform="translate(-421.437 -237.448)" opacity="0.1"/>
    <rect id="Retângulo_21" data-name="Retângulo 21" width="26.665" height="20.16" rx="10.08" transform="translate(206.072 66.293)" fill="#88455e"/>
    <path id="Caminho_25" data-name="Caminho 25" d="M462.5,302.381l-5.692,9.081-.478-1.615-7.733-25.2a3.876,3.876,0,0,1,.12-2.614c1.955-4.751,8.847-20.552,11.346-13.168,2.925,8.6-5.042,17.885-5.042,17.885a28.639,28.639,0,0,0,6.8,14.883C462.238,302.128,462.5,302.381,462.5,302.381Z" transform="translate(-293.9 -196.332)" fill="#ec8c9c"/>
    <path id="Caminho_26" data-name="Caminho 26" d="M691.16,317.679s8.942-8.455,8.6-11.868c0,0-8.455-13.655-4.225-16.728,3.346-2.447,8.426,9.884,10.4,15.127a5.114,5.114,0,0,1-.339,4.3l-10.687,18.922Z" transform="translate(-420.622 -207.73)" fill="#ec8c9c"/>
    <path id="Caminho_27" data-name="Caminho 27" d="M565.827,299.919s1.625,10.4-3.088,14.31,13.5,3.881,13.5,3.881l6.5-6.017s-7.48-6.992-5.2-12.193Z" transform="translate(-353.173 -213.543)" fill="#ec8c9c"/>
    <path id="Caminho_28" data-name="Caminho 28" d="M554.708,324.06s6.992,5.2,13.98-.65l11.38,23.577-.65,28.777s-23.577,12.193-33.332,4.717-1.625-11.38-1.625-11.38l-2.275-22.11,2.437-14.31s4.388-6.83,4.717-6.83S554.708,324.06,554.708,324.06Z" transform="translate(-342.38 -225.816)" opacity="0.1"/>
    <path id="Caminho_29" data-name="Caminho 29" d="M554.714,323.38s6.992,5.214,13.985-.65l11.38,23.577-.65,28.777S555.851,387.277,546.1,379.8s-1.625-11.38-1.625-11.38l-2.275-22.11L544.633,332s4.388-6.83,4.717-6.83S554.714,323.38,554.714,323.38Z" transform="translate(-342.385 -225.461)" fill="#ebf1f6"/>
    <path id="Caminho_30" data-name="Caminho 30" d="M513.25,319s-6.629,3.776-13.827,3.589a5.1,5.1,0,0,0-3.675,1.405c-2.05,1.969-5.64,5.085-7.862,5.085-.478,0-14.31,2.763-14.31,2.763l-3.656-3.656s-5.449,10.649-8.049,10.161l4.717,6.18s8.943,3.9,20.648-.813h6.83l3.575,11.055s-1.788,14.96-3.25,18.21.478,9.592.478,9.592l12.843-.478s.65-6.342,1.625-7.169-3.413-28.777-3.413-28.777-2.925-15.772,7.8-21.46Z" transform="translate(-300.921 -223.514)" opacity="0.1"/>
    <path id="Caminho_31" data-name="Caminho 31" d="M547.4,439.38a42.452,42.452,0,0,0-1.009,5.864l-9.831.373c1.314-2.758,2.194-4.44,2.194-4.44Z" transform="translate(-339.913 -286.358)" opacity="0.1"/>
    <path id="Caminho_32" data-name="Caminho 32" d="M471.13,340.28l-5.692,9.081-.478-1.616c2.089-2.074,4.536-6.409,5.511-8.216A9.615,9.615,0,0,0,471.13,340.28Z" transform="translate(-302.535 -234.232)" opacity="0.1"/>
    <path id="Caminho_33" data-name="Caminho 33" d="M512.879,319s-6.959,3.776-14.152,3.589a5.1,5.1,0,0,0-3.676,1.405c-2.05,1.969-5.64,5.085-7.862,5.085-.478,0-14.31,2.763-14.31,2.763l-3.671-3.661s-5.449,10.649-8.049,10.161l4.717,6.18s8.942,3.9,20.647-.812h6.83l3.575,11.05s-1.788,14.96-3.25,18.21.478,9.592.478,9.592L507,382.085s.65-6.342,1.625-7.169-3.413-28.777-3.413-28.777-2.925-15.772,7.8-21.46Z" transform="translate(-300.551 -223.514)" fill="#ced2df"/>
    <path id="Caminho_34" data-name="Caminho 34" d="M596.182,316.94a31.639,31.639,0,0,0,15.49,5.64,4.708,4.708,0,0,1,2.653,1.028,25.676,25.676,0,0,1,5.6,6.691c3.575,5.855,12.355,5.2,12.355,5.2s8.536-2.681,9.024-4.78c0,0,.244,11.471,5.611,8.7l-7.059,8.135a4.979,4.979,0,0,1-3.561,1.716,52.341,52.341,0,0,1-11.151-.617c-5.855-1.138-10.08-3.9-13.167-1.463,0,0-4.063,12.68-1.3,17.235s7.647,12.193,5.367,14.147-5.042,1.788-9.593-2.925-5.042-12.68-5.042-12.68l1.138-20.485s-4.388-15.447-8.6-18.535Z" transform="translate(-369.868 -222.439)" opacity="0.1"/>
    <path id="Caminho_35" data-name="Caminho 35" d="M648.246,339.39l-7.078,8.168a4.976,4.976,0,0,1-1.706,1.271h0a4.955,4.955,0,0,1-1.845.435,51.717,51.717,0,0,1-11.151-.617c-5.477-1.066-9.53-3.551-12.561-1.874a4.448,4.448,0,0,0-.612.406s-4.062,12.68-1.3,17.235,7.647,12.193,5.367,14.147a5.258,5.258,0,0,1-1.271.827c-2.046.922-4.583.124-8.321-3.752-4.55-4.717-5.042-12.68-5.042-12.68l1.138-20.485s-4.388-15.447-8.6-18.535l1.859-6.667a33.754,33.754,0,0,0,15.581,5.477,4.708,4.708,0,0,1,2.653,1.028,25.7,25.7,0,0,1,5.6,6.691c3.575,5.855,12.355,5.2,12.355,5.2a47.447,47.447,0,0,0,6.151-2.447h0a9.375,9.375,0,0,0,2.868-1.912,1.436,1.436,0,0,0,.311-.574S642.883,342.152,648.246,339.39Z" transform="translate(-370.558 -222.611)" opacity="0.1"/>
    <path id="Caminho_36" data-name="Caminho 36" d="M647.55,339.385l-7.074,8.178a4.976,4.976,0,0,1-1.377,1.109h0a4.96,4.96,0,0,1-2.17.6,51.717,51.717,0,0,1-11.151-.617c-5.281-1.028-9.244-3.379-12.231-2.036a4.421,4.421,0,0,0-.956.569s-4.063,12.68-1.3,17.235,7.647,12.193,5.367,14.147a5.644,5.644,0,0,1-.956.664c-2.1,1.161-4.7.478-8.646-3.589-4.55-4.717-5.042-12.68-5.042-12.68l1.137-20.485s-4.387-15.447-8.6-18.535l1.95-6.992.234.162a33.753,33.753,0,0,0,15.581,5.477,4.708,4.708,0,0,1,2.653,1.028,25.694,25.694,0,0,1,5.6,6.691c3.575,5.855,12.355,5.2,12.355,5.2a47.459,47.459,0,0,0,6.151-2.447h0c1.477-.755,2.681-1.582,2.868-2.337v.411C642.082,333.114,642.8,341.827,647.55,339.385Z" transform="translate(-370.187 -222.444)" fill="#ced2df"/>
    <path id="Caminho_37" data-name="Caminho 37" d="M581.8,300.45H569.85a29.238,29.238,0,0,1,.225,5.735,12.283,12.283,0,0,0,12.627.908C581.555,304.971,580.857,302.563,581.8,300.45Z" transform="translate(-357.292 -213.83)" opacity="0.1"/>
    <circle id="Elipse_2" data-name="Elipse 2" cx="11.868" cy="11.868" r="11.868" transform="translate(207.941 70.604)" fill="#ec8c9c"/>
    <path id="Caminho_38" data-name="Caminho 38" d="M569.708,269.177c1.324-.158,2.648-.626,3.953-.363,1.185.239,2.194,1.056,3.379,1.3,2.284.478,4.407-1.2,6.132-2.772l3.728-3.393a7.61,7.61,0,0,0,2.1-2.571,2.581,2.581,0,0,0-.631-3.04c-1.362-.956-3.709,0-4.693-1.357a7.083,7.083,0,0,1-.607-2.165,3.8,3.8,0,0,0-3.661-2.28,16.2,16.2,0,0,0-4.483.956,25.808,25.808,0,0,1-9.559.913,6.109,6.109,0,0,0-2.614.091,3.656,3.656,0,0,0-2.122,2.519c-.736,2.6.521,6.792,1.783,9.119S567.189,269.488,569.708,269.177Z" transform="translate(-352.366 -188.818)" opacity="0.1"/>
    <path id="Caminho_39" data-name="Caminho 39" d="M569.708,268.5c1.324-.158,2.648-.626,3.953-.363,1.185.239,2.194,1.056,3.379,1.3,2.284.478,4.407-1.2,6.132-2.772l3.728-3.393A7.61,7.61,0,0,0,589,260.7a2.581,2.581,0,0,0-.631-3.04c-1.362-.956-3.709,0-4.693-1.357a7.084,7.084,0,0,1-.607-2.165,3.8,3.8,0,0,0-3.661-2.28,16.2,16.2,0,0,0-4.483.956,25.808,25.808,0,0,1-9.559.913,6.109,6.109,0,0,0-2.614.091,3.657,3.657,0,0,0-2.122,2.519c-.736,2.6.521,6.792,1.783,9.119S567.189,268.784,569.708,268.5Z" transform="translate(-352.366 -188.463)" fill="#88455e"/>
    <path id="Caminho_40" data-name="Caminho 40" d="M536.55,394a6.7,6.7,0,0,1,3.9,1.95,7.006,7.006,0,0,0,3.575,2.113" transform="translate(-339.908 -262.668)" opacity="0.1"/>
    <path id="Caminho_41" data-name="Caminho 41" d="M487.459,349.09s2.122,4.736.812,5.214-.812,3.9-.812,3.9" transform="translate(-314.232 -239.223)" opacity="0.1"/>
    <g id="Grupo_13" data-name="Grupo 13" transform="translate(173.81 95.562)" opacity="0.1">
      <path id="Caminho_42" data-name="Caminho 42" d="M488.928,335.763S502.746,333,503.224,333c2.227,0,5.812-3.116,7.862-5.085a5.018,5.018,0,0,1,2.227-1.238h-.177a5.1,5.1,0,0,0-3.675,1.405c-2.05,1.969-5.64,5.085-7.862,5.085-.387,0-9.229,1.754-12.819,2.466Z" transform="translate(-488.78 -323.083)"/>
      <path id="Caminho_43" data-name="Caminho 43" d="M557.841,319.767v-.607a34.5,34.5,0,0,1-10.591,3.389A32.729,32.729,0,0,0,557.841,319.767Z" transform="translate(-519.304 -319.16)"/>
      <path id="Caminho_44" data-name="Caminho 44" d="M524.858,409.377s-1.95-6.342-.478-9.592,3.25-18.21,3.25-18.21l-3.566-11.055h-6.849l-.416.163h5.616l3.561,11.06s-1.788,14.96-3.25,18.21.478,9.592.478,9.592l12.842-.478v-.1Z" transform="translate(-503.408 -345.973)"/>
    </g>
    <g id="Grupo_14" data-name="Grupo 14" transform="translate(231.991 116.951)" opacity="0.1">
      <path id="Caminho_45" data-name="Caminho 45" d="M625.154,424.387a5.636,5.636,0,0,1-.956.664c-2.1,1.161-4.7.478-8.646-3.589-3.613-3.742-4.665-9.559-4.947-11.762l-.1,1.682s.478,7.967,5.042,12.68c3.943,4.082,6.543,4.751,8.646,3.589a5.636,5.636,0,0,0,.956-.664c.683-.588.722-1.692.363-3.068A1.507,1.507,0,0,1,625.154,424.387Z" transform="translate(-610.51 -387.815)"/>
      <path id="Caminho_46" data-name="Caminho 46" d="M662.673,364.144l-4.6,5.32a4.974,4.974,0,0,1-1.376,1.109h0a4.962,4.962,0,0,1-2.17.6,51.722,51.722,0,0,1-11.151-.617c-5.281-1.028-9.244-3.379-12.231-2.036a4.424,4.424,0,0,0-.956.569s-2.624,8.192-2.222,13.77a53.773,53.773,0,0,1,2.222-11.17,4.421,4.421,0,0,1,.956-.569c2.992-1.343,6.949,1.008,12.231,2.036a52.323,52.323,0,0,0,11.151.617,4.962,4.962,0,0,0,2.17-.6h0a4.972,4.972,0,0,0,1.376-1.094l7.078-8.168A2.787,2.787,0,0,1,662.673,364.144Z" transform="translate(-619.6 -363.91)"/>
    </g>
    <path id="Caminho_47" data-name="Caminho 47" d="M265.74,486.89a.368.368,0,0,0,.435.057A1.481,1.481,0,0,1,265.74,486.89Z" transform="translate(-198.532 -311.161)" fill="url(#linear-gradient-3)"/>
    <path id="Caminho_48" data-name="Caminho 48" d="M241.016,295c-.86-.249-2.089-.655-3.566-1.171a18.7,18.7,0,0,0,3.3-6.653l-.124.048c.043-.148.086-.292.124-.444-2.834,1.152-5.97-.8-7.967-3.3s-3.346-5.611-5.535-7.915a25.333,25.333,0,0,0-2.935-2.528,4.057,4.057,0,0,0-2.127-1.042c-1.276-.038-2.275,1.214-3.5,1.582a4.78,4.78,0,0,1-2.442-.091c-3.169-.727-6.213-2.07-9.449-2.423a11.074,11.074,0,0,0-5.128.578c-1.625.617-2.366,1.845-3.68,2.829-1.434,1.056-4.235,1.032-5.9,1.219a42.3,42.3,0,0,1-6.1.253,14.271,14.271,0,0,0-3.508.129c-2.423.53-4.368,2.457-6.185,4.3a3.188,3.188,0,0,0-1.023,1.6,2.022,2.022,0,0,0,0,.531,3.446,3.446,0,0,0,.244,1.41,18.642,18.642,0,0,0,2.347,4.67,13.487,13.487,0,0,1,2.027,3.317,6.438,6.438,0,0,1,.311,1.912,13.9,13.9,0,0,1-.215,2.055,25.808,25.808,0,0,1-1.572,5.473,9.941,9.941,0,0,0-.918,2.868,4.57,4.57,0,0,0,0,.612c-.12,3.154,3.064,5.425,3.68,8.56a5.11,5.11,0,0,1,.091.789,5.341,5.341,0,0,1-2.825,4.627c.143.057.292.105.44.153a3.986,3.986,0,0,1-.44.239,8.911,8.911,0,0,0,.918.3,21.318,21.318,0,0,0-4.641,5.735c-5.53,10.3-42.982,30.46-42.982,30.46l.554.315-.449.292c-3.24,2.156-10.845,8.441-3.972,16.389,0,0,5.367-8.469,9.129-12.078.167-.163.335-.311.478-.449a1.1,1.1,0,0,1,.143.87l24.624-13.837s8.751-6.127,11.194-7.509a20.145,20.145,0,0,1,5.549-2.39l-.287.119a11.241,11.241,0,0,1,2.825-.4c4.359.067,9.081,3.26,10.634,15.9,2.084,16.929,1.118,19.983.449,20.4a1.224,1.224,0,0,1-.244-.043.419.419,0,0,0,.067.048,1.276,1.276,0,0,1-.268-.048.382.382,0,0,0,.363.086.339.339,0,0,0,.272-.033h0a2.8,2.8,0,0,0,.33,0,3.511,3.511,0,0,1-.033.478c-.033,0-.2.091,0,.1h0c-.053.956-.048,1.993,0,3.078-2.165.119-4.33.249-6.213.363l.167-.894.076-.4c1.663-.134,3.24-.621,3.427-1.969.406-2.963-3.661-4.545-7.121-4.741s-24.213,1.185-24.213,1.185-3.111,4.029,6.758,5.257l.913.478A109.69,109.69,0,0,1,178.51,384.5l.349.277-1.128.918c6.1,1.381,12.006,24.705,15.261,35.368s10.376,10.276,16.279,8.694c5.53-1.482,6.213-17.541,6.3-19.558v-.206l9.836,12.149.746.922q.43.225.851.421c7.446,3.542,15.672-3.25,13.335-10.993-2.366-7.8-6.037-19.347-8.484-24.227-2.05-4.086-4.7-10.873-6.3-15.122a5.106,5.106,0,0,0,.607-.292s-.038-.191-.1-.54l.1-.053s-2.39-12.293-2.495-21.03v-.76c1.778-.406,2.906-.564,2.906-.564l.033-.382-.206.043.989-11.323s3.632-7.728.851-10.945a6.758,6.758,0,0,1-1.63-3.346c-.478-2.959,0-7.9,6.476-12,9.97-6.323,13.861-11.471,13.861-11.471S247.12,296.8,241.016,295Zm-19.8,7.857v-5.234c1.85-.091,3.738.124,5.6,0a14.166,14.166,0,0,0,2.7-.454l.449.311a49.229,49.229,0,0,1-8.747,5.377Zm-28.271,82.035c.731.507,1.467,1.032,2.189,1.563.449,2.581.846,4.4.875,4.531A35.779,35.779,0,0,0,192.944,384.892Z" transform="translate(-125.1 -198.443)" fill="url(#linear-gradient-4)"/>
    <path id="Caminho_49" data-name="Caminho 49" d="M275.26,500.32l-.43,2.337-.33,1.788-.6,3.269-5.841,4.086s-.526-.449-1.4-1.161a102.383,102.383,0,0,0-11.117-8.125,12.43,12.43,0,0,0-3.054-1.41Z" transform="translate(-191.615 -318.172)" fill="#ffbdc6"/>
    <path id="Caminho_50" data-name="Caminho 50" d="M275.254,500.32l-.43,2.337a18.162,18.162,0,0,1-3.852-.2l-13.626.2c-.645-.038-1.247-.091-1.811-.148a12.43,12.43,0,0,0-3.054-1.41Z" transform="translate(-191.609 -318.172)" opacity="0.1"/>
    <path id="Caminho_51" data-name="Caminho 51" d="M265.808,496.948s6.816,1.166,7.2-1.754-3.5-4.459-6.806-4.679-23.171,1.176-23.171,1.176-3.5,4.67,9.148,5.449Z" transform="translate(-186.446 -313.041)" fill="#7679b4"/>
    <path id="Caminho_52" data-name="Caminho 52" d="M275.26,500.32l-.43,2.337-.33,1.788-.6,3.269-5.841,4.086s-.526-.449-1.4-1.161a102.383,102.383,0,0,0-11.117-8.125,12.43,12.43,0,0,0-3.054-1.41Z" transform="translate(-191.615 -318.172)" opacity="0.1"/>
    <path id="Caminho_53" data-name="Caminho 53" d="M275.254,500.32l-.43,2.337a18.162,18.162,0,0,1-3.852-.2l-13.626.2c-.645-.038-1.247-.091-1.811-.148a12.43,12.43,0,0,0-3.054-1.41Z" transform="translate(-191.609 -318.172)" opacity="0.1"/>
    <path id="Caminho_54" data-name="Caminho 54" d="M265.808,496.948s6.816,1.166,7.2-1.754-3.5-4.459-6.806-4.679-23.171,1.176-23.171,1.176-3.5,4.67,9.148,5.449Z" transform="translate(-186.446 -313.041)" opacity="0.1"/>
    <rect id="Retângulo_22" data-name="Retângulo 22" width="35.622" height="42.241" transform="translate(58.629 87.93)" fill="#a66477"/>
    <rect id="Retângulo_23" data-name="Retângulo 23" width="35.622" height="42.241" transform="translate(58.629 87.93)" opacity="0.1"/>
    <path id="Caminho_55" data-name="Caminho 55" d="M145.611,450.668a5.707,5.707,0,0,0-2.17,1.534c-3.6,3.556-8.732,11.9-8.732,11.9-6.577-7.829.7-14.018,3.824-16.145.755-.516,1.262-.793,1.262-.793Z" transform="translate(-128.735 -290.42)" fill="#ffbdc6"/>
    <path id="Caminho_56" data-name="Caminho 56" d="M278.694,331.09s1.754,12.264,7.786,15.185-7.786,8.369-7.786,8.369l-18.884-7.007s10.706-3.5,8.565-13.822Z" transform="translate(-195.436 -229.826)" fill="#ffbdc6"/>
    <path id="Caminho_57" data-name="Caminho 57" d="M232.13,485.45l-.43,2.337-.33,1.788-.6,3.269-5.841,4.087s-.526-.449-1.4-1.161a102.368,102.368,0,0,0-11.117-8.125,12.425,12.425,0,0,0-3.054-1.41Z" transform="translate(-169.099 -310.409)" fill="#ffbdc6"/>
    <path id="Caminho_58" data-name="Caminho 58" d="M232.124,485.45l-.43,2.337a18.166,18.166,0,0,1-3.852-.2l-13.626.2c-.645-.038-1.247-.091-1.811-.148a12.427,12.427,0,0,0-3.054-1.41Z" transform="translate(-169.093 -310.409)" opacity="0.1"/>
    <path id="Caminho_59" data-name="Caminho 59" d="M222.633,482.083s6.816,1.166,7.2-1.754-3.5-4.478-6.816-4.67-23.166,1.166-23.166,1.166-3.5,4.67,9.148,5.449Z" transform="translate(-163.904 -305.289)" fill="#7679b4"/>
    <path id="Caminho_60" data-name="Caminho 60" d="M246.808,493.939l-.6,3.269-5.841,4.086s-.526-.449-1.4-1.161l7.724-6.333Z" transform="translate(-184.557 -314.768)" opacity="0.1"/>
    <path id="Caminho_61" data-name="Caminho 61" d="M284.521,529.043q-.4-.2-.813-.416l-.712-.908-9.406-11.949v.21c-.062,1.984-.741,17.8-6.027,19.261-5.645,1.558-12.46,1.945-15.572-8.565s-8.761-33.48-14.6-34.843l8.66-7.107s5.735,6.691,8.077,13.134c-.086-.411-4.048-18.912-.779-22.182h28.419s4.378,12.494,7.4,18.688c2.342,4.808,5.855,16.174,8.125,23.864A9.141,9.141,0,0,1,284.521,529.043Z" transform="translate(-183.732 -305.309)" fill="#7679b4"/>
    <path id="Caminho_62" data-name="Caminho 62" d="M299.7,453.243c-4.383,2.6-23.654,1.539-29.934,1.118l-1.706-.124c-.186,0,.029-.105.029-.105l.177-1.768,4.67-11.872L297.948,426a21.647,21.647,0,0,0-.636,6.543C297.437,441.137,299.7,453.243,299.7,453.243Z" transform="translate(-199.702 -279.373)" opacity="0.1"/>
    <path id="Caminho_63" data-name="Caminho 63" d="M299.472,452.044c-4.383,2.6-23.654,1.539-29.934,1.118l-1.706-.124h-.282l.311-.081,1.539-.406,3.307-13.239,25.016-14.5a21.646,21.646,0,0,0-.636,6.543C297.212,439.932,299.472,452.044,299.472,452.044Z" transform="translate(-199.477 -278.752)" fill="#f2f1f2"/>
    <path id="Caminho_64" data-name="Caminho 64" d="M297.4,431.287c-5.085,1.171-16.279,4.617-20.581,12.9-2.868,5.535-5.257,7.91-6.964,8.9l-1.706-.124.029-.105,1.539-.406,3.307-13.239,25.016-14.5A21.65,21.65,0,0,0,297.4,431.287Z" transform="translate(-199.79 -278.705)" opacity="0.1"/>
    <path id="Caminho_65" data-name="Caminho 65" d="M146.832,447.17l5.841,3.5a5.706,5.706,0,0,0-2.17,1.534c-.478-1.434-3.546-3.4-4.932-4.244C146.325,447.447,146.832,447.17,146.832,447.17Z" transform="translate(-135.797 -290.425)" opacity="0.1"/>
    <path id="Caminho_66" data-name="Caminho 66" d="M265.551,484.283a.349.349,0,0,1-.411-.053A1.4,1.4,0,0,0,265.551,484.283Z" transform="translate(-198.219 -309.772)" opacity="0.1"/>
    <path id="Caminho_67" data-name="Caminho 67" d="M216.211,328.727a11.58,11.58,0,0,1-8.957-3.307s-15.572,4.478-20.829,14.6S145.35,370,145.35,370s6.213,3.5,5.645,5.258l23.553-13.626s8.369-6.036,10.706-7.4,15.184-9.731,17.909,13.043,0,20.074,0,20.074,3.9,1.362,9.559-9.559,23.166-13.43,23.166-13.43l.956-11.471s3.475-7.609.813-10.783a6.739,6.739,0,0,1-1.558-3.293c-.445-2.916,0-7.776,6.213-11.815,9.559-6.213,13.239-11.289,13.239-11.289s.2-3.7-5.645-5.449-29.59-11.289-29.59-11.289l-.779,3.307,18.688,13.239s-9.344,7.59-16.728,7.4C221.468,322.882,222.831,328.531,216.211,328.727Z" transform="translate(-135.682 -213.057)" fill="#565388"/>
    <path id="Caminho_68" data-name="Caminho 68" d="M288.459,337.039a38.227,38.227,0,0,1-1.075-4.779L277.064,335a11.375,11.375,0,0,1-.234,5.951,11.1,11.1,0,0,0,11.629-3.919Z" transform="translate(-204.321 -230.436)" opacity="0.1"/>
    <circle id="Elipse_3" data-name="Elipse 3" cx="11.098" cy="11.098" r="11.098" transform="translate(64.47 88.121)" fill="#ffbdc6"/>
    <path id="Caminho_69" data-name="Caminho 69" d="M262.58,273.893c3.078.349,6.008,1.673,9.038,2.39a4.465,4.465,0,0,0,2.337.091c1.176-.363,2.132-1.6,3.346-1.558a3.517,3.517,0,0,1,2.036,1.028,24.431,24.431,0,0,1,2.806,2.49c2.089,2.27,3.389,5.329,5.3,7.8s4.913,4.388,7.623,3.255c-1.84,7.169-7.881,12.651-14.41,13.1-2.6.177-5.257-.363-7.8.4a6.824,6.824,0,0,1-1.969.478c-1.434,0-2.619-1.333-3.527-2.629-2.122-3.049-3.824-6.51-6.213-9.287a5.08,5.08,0,0,0-2.834-1.96,5.248,5.248,0,0,0-3.135.879,14.886,14.886,0,0,0-4.588,3.183,6.363,6.363,0,0,0-1.549,5.6,13.668,13.668,0,0,1,.956,3.131c0,1.768-1.539,3.064-1.85,4.78a18.445,18.445,0,0,0-.077,2.179c-.139,2.361-1.678,4.3-3.293,5.778a4.156,4.156,0,0,0-1.505,2.089c-.124.607,0,1.252-.081,1.869-.234,1.534-1.764,2.309-3.116,2.509a9.033,9.033,0,0,1-4.674-.554,5.373,5.373,0,0,0,2.614-5.735c-.6-3.159-3.776-5.425-3.508-8.646a10,10,0,0,1,.879-2.844,26.027,26.027,0,0,0,1.5-5.391,9.134,9.134,0,0,0-.091-4.3,13.581,13.581,0,0,0-1.94-3.269,18.551,18.551,0,0,1-2.246-4.6,3.225,3.225,0,0,1-.215-1.52,3.149,3.149,0,0,1,.956-1.577c1.74-1.821,3.6-3.718,5.917-4.244a13.266,13.266,0,0,1,3.346-.129,39.312,39.312,0,0,0,5.836-.249c1.6-.186,4.3-.163,5.649-1.2,1.257-.956,1.969-2.175,3.522-2.786A10.309,10.309,0,0,1,262.58,273.893Z" transform="translate(-181.114 -199.915)" opacity="0.1"/>
    <path id="Caminho_70" data-name="Caminho 70" d="M308.48,513.76s6.424,12.651,4.478,16.547" transform="translate(-220.844 -325.188)" opacity="0.1"/>
    <path id="Caminho_71" data-name="Caminho 71" d="M322.491,568.648,313.085,556.7v.21s-.545-3.862,1.247-2.562c3.924,2.839,10.2,7.494,10.338,8.3S323.4,566.669,322.491,568.648Z" transform="translate(-223.208 -346.238)" opacity="0.1"/>
    <g id="Grupo_15" data-name="Grupo 15" transform="translate(9.864 85.879)" opacity="0.1">
      <path id="Caminho_72" data-name="Caminho 72" d="M303.063,348.828s.793,3.288-1.773,4.932a4.409,4.409,0,0,0,4.005-5.09,12.457,12.457,0,0,1-2.232.158Z" transform="translate(-226.954 -324.882)"/>
      <path id="Caminho_73" data-name="Caminho 73" d="M147.906,398.459s35.818-19.854,41.075-29.977c3.771-7.265,12.857-11.619,17.684-13.5-3.522,1.181-15.376,5.707-19.83,14.281-5.257,10.123-41.075,29.977-41.075,29.977Z" transform="translate(-145.76 -328.177)"/>
      <path id="Caminho_74" data-name="Caminho 74" d="M309.849,321.3c6.094-1.912,11.92-6.629,11.92-6.629l-18.688-13.239.425-1.816-1.788-.717-.779,3.307,18.688,13.239A45.094,45.094,0,0,1,309.849,321.3Z" transform="translate(-226.772 -298.9)"/>
      <path id="Caminho_75" data-name="Caminho 75" d="M319.83,437.2a46.305,46.305,0,0,1,7.327-1.85l.033-.378A49.59,49.59,0,0,0,319.83,437.2Z" transform="translate(-236.633 -369.935)"/>
      <path id="Caminho_76" data-name="Caminho 76" d="M255.186,443.235h-.172a.349.349,0,0,1-.411-.053,1.433,1.433,0,0,0,.411.053c.64-.373,1.6-3.279-.411-20.1-2.151-17.961-10.591-16.551-15.213-14.487,4.722-1.3,11.222-.177,13.072,15.266,2.012,16.824,1.051,19.735.411,20.1a4.3,4.3,0,0,0,2.313-.779Z" transform="translate(-194.64 -355.578)"/>
      <path id="Caminho_77" data-name="Caminho 77" d="M267.151,483.883a1.432,1.432,0,0,1-.411-.053A.349.349,0,0,0,267.151,483.883Z" transform="translate(-208.918 -395.443)"/>
    </g>
    <path id="Caminho_78" data-name="Caminho 78" d="M262.58,273.1c3.078.349,6.008,1.673,9.038,2.39a4.464,4.464,0,0,0,2.337.091c1.176-.363,2.132-1.6,3.346-1.558a3.517,3.517,0,0,1,2.036,1.028,24.43,24.43,0,0,1,2.806,2.49c2.089,2.27,3.389,5.329,5.3,7.8s4.913,4.388,7.623,3.255c-1.84,7.169-7.881,12.651-14.41,13.1-2.6.177-5.257-.363-7.8.4a6.825,6.825,0,0,1-1.969.478c-1.434,0-2.619-1.333-3.527-2.629-2.122-3.049-3.824-6.51-6.213-9.287a5.079,5.079,0,0,0-2.834-1.96,5.248,5.248,0,0,0-3.135.879,14.885,14.885,0,0,0-4.588,3.183,6.363,6.363,0,0,0-1.549,5.6,13.671,13.671,0,0,1,.956,3.131c0,1.768-1.539,3.064-1.85,4.779a18.448,18.448,0,0,0-.077,2.179c-.139,2.361-1.678,4.3-3.293,5.778a4.156,4.156,0,0,0-1.506,2.089c-.124.607,0,1.252-.081,1.869-.234,1.534-1.764,2.309-3.116,2.509a9.033,9.033,0,0,1-4.674-.554,5.373,5.373,0,0,0,2.614-5.735c-.6-3.159-3.776-5.425-3.508-8.646a10,10,0,0,1,.879-2.844,26.026,26.026,0,0,0,1.5-5.391,9.134,9.134,0,0,0-.091-4.3,13.579,13.579,0,0,0-1.94-3.269,18.555,18.555,0,0,1-2.246-4.6,3.227,3.227,0,0,1-.215-1.52,3.15,3.15,0,0,1,.956-1.577c1.74-1.821,3.6-3.718,5.917-4.244a13.269,13.269,0,0,1,3.346-.129,39.308,39.308,0,0,0,5.836-.249c1.6-.186,4.3-.163,5.649-1.2,1.257-.956,1.969-2.175,3.522-2.786A10.31,10.31,0,0,1,262.58,273.1Z" transform="translate(-181.114 -199.503)" fill="#a66477"/>
    <path id="Caminho_79" data-name="Caminho 79" d="M847.954,207.47h0v-.177a.4.4,0,0,0-.029-.182h-.076v-.4c-.191-4.431-6.318-13.861-8.775-11.108-2.151,2.418,1.094,8.536,2.748,11.289l.148.249-.081-.053s-6.839,20.4-7.647,21.192-6.438,16.833-13.861,18.64c-1.467.349-2.686.664-3.709.956l.081-.272a29.585,29.585,0,0,0,1.3-4.78c.239-1.74,0-3.847-.879-4.693-.43-.421-.956-.478-1.31-1.147a5.294,5.294,0,0,1-.363-1.84l-.631-7.733.44-.134c2.657-.851,5.234-2.868,5.535-5.582a2.863,2.863,0,0,1-.282.091,4.816,4.816,0,0,0,.081-.478c-2.232.879-4.3-1.434-6.452-2.471-3.542-1.735-7.59-.1-11.246.3-4.144.454-8.077-1.267-12.312-.956-2.3.177-4.866,1.74-4.741,4.01.072,1.247.956,2.3,1.319,3.5.918,2.892-1.123,5.793-2.911,8.259a12.3,12.3,0,0,0-2.5,5.5c-4.115-4.3-8.565-9.272-9.081-11.141l-11.906-20.4s-.282.3-.736.746c-.072-.22-.158-.478-.253-.736-1.52-4.259-5.821-14.577-11.275-12.685s2.261,12.47,5.616,16.685l.478.583a1.51,1.51,0,0,1-.851-.038l13.277,22.774s2.414,4.359,4.627,5.544c0,0,16.494,20.8,16.695,24.954s7.418,15.251,7.418,15.251,2.414,18.023-1.811,21.192h.7q-.3.294-.617.645c-3.131,3.47-7.131,10.907-1.663,23.553,8.044,18.64,9.253,25.943,9.253,25.943s-15.294.793-18.306,1.386c-2.667.526-13.034.894-15.4.956-.846-.985-3.346-3.164-6.72,0-4.225,3.962-7.241,17.206-7.241,17.206s-1.611,10.7,3.824,7.92c0,0,6.438-8.914,8.245-9.31.9-.2,1.85-1.52,2.576-2.8l.038.024h0c.043,0,.22-.1.507-.21h0c1.338-.53,5.023-1.807,7.929-1.171,1.592.349,8.417.43,15.572.411-1.615,3.871-4.512,13.861-4.512,13.861s-1.209,9.315,2.805,8.933c2.868-.282,7.265-7.609,9.559-11.791,1.663-1.219,6.428-5.587,9.951-5.257l23.735-9.11s5.63-3.169,2.615-13.665c-2.39-8.345-9.191-25.427-11.877-32.085h0l-.081-.172c-.65-1.611-1.042-2.567-1.042-2.567h0a39.279,39.279,0,0,1-2.156-9.42c-.024-.253-.043-.511-.062-.765a4.228,4.228,0,0,0,.932-.54s-2.213-22.378,0-24.758h0l.038-.043h0v-.029h0l.038-.048h0l.086-.11h0l.105-.134h0c.119-.158.263-.354.425-.593h0a16.407,16.407,0,0,0,2.949-11.088h0q-.043-.325-.105-.655h0a13.655,13.655,0,0,0-1.376-3.881,10.771,10.771,0,0,1-.177-1.534v-1.357a4.6,4.6,0,0,1,.072-.688v-.086a.856.856,0,0,1,.043-.263v-.11a1.246,1.246,0,0,1,.057-.258v-.091c.029-.115.057-.229.1-.344v-.057q.043-.143.1-.282l.043-.11.1-.229.048-.115c.038-.086.081-.172.124-.258l.033-.072q.086-.158.182-.311l.052-.081.158-.225.077-.1.167-.2.077-.086c.086-.091.172-.182.268-.268,2.614-2.39,14.281-20,14.281-20s2.815-3.962,2.815-6.534C843.481,229.1,848.456,212.512,847.954,207.47Zm-31.32,148.045c-.287-2.715-.574-6.08-.836-9.559l4.55,7.093S819.918,355.209,816.634,355.515Z" transform="translate(-449.593 -158.78)" fill="url(#linear-gradient-5)"/>
    <path id="Caminho_80" data-name="Caminho 80" d="M778.477,525.481s-2.724-4.3-6.816-.387-7.007,16.934-7.007,16.934-1.558,10.515,3.7,7.786c0,0,6.213-8.761,7.982-9.148s3.7-5.257,3.7-5.257Z" transform="translate(-458.877 -330.247)" fill="#493545"/>
    <path id="Caminho_81" data-name="Caminho 81" d="M843.878,548.7s-3.7-1.754-4.865-.387-5.061,14.989-5.061,14.989-1.166,8.957,2.724,8.565,10.706-14.415,10.706-14.415Z" transform="translate(-495.081 -342.954)" fill="#493545"/>
    <path id="Caminho_82" data-name="Caminho 82" d="M843.878,548.7s-3.7-1.754-4.865-.387-5.061,14.989-5.061,14.989-1.166,8.957,2.724,8.565,10.706-14.415,10.706-14.415Z" transform="translate(-495.081 -342.954)" opacity="0.05"/>
    <path id="Caminho_83" data-name="Caminho 83" d="M865.588,468.4l8.369,13.043s-.583,2.92-5.645,2.337l-17.326,10.9s-1.506,13.273,3.307,12.068c.779-.2,6.213-5.841,10.123-5.449l22.975-8.957s5.449-3.116,2.528-13.43-12.575-34.231-12.575-34.231l-15.261,8.536Z" transform="translate(-503.943 -289.125)" fill="#3e3d77"/>
    <path id="Caminho_84" data-name="Caminho 84" d="M865.588,468.4l8.369,13.043s-.583,2.92-5.645,2.337l-17.326,10.9s-1.506,13.273,3.307,12.068c.779-.2,6.213-5.841,10.123-5.449l22.975-8.957s5.449-3.116,2.528-13.43-12.575-34.231-12.575-34.231l-15.261,8.536Z" transform="translate(-503.943 -289.125)" opacity="0.05"/>
    <path id="Caminho_85" data-name="Caminho 85" d="M838.234,472.329c1.166,7.4-5.449,7.982-5.449,7.982s-29.786.583-33.289-.2-8.178,1.362-8.178,1.362c-6.036-3.7-1.166-12.847-1.166-12.847s12.46-.387,15.38-.956,17.713-1.376,17.713-1.376-1.166-7.2-8.957-25.5c-5.291-12.427-1.434-19.739,1.611-23.147a12.82,12.82,0,0,1,2.672-2.351l23.945,1.166a31.077,31.077,0,0,0,.134,3.618,38.532,38.532,0,0,0,3.178,11.949c-1.362,0-10.123,8.178-10.123,8.178S837.063,464.935,838.234,472.329Z" transform="translate(-471.332 -273.787)" fill="#3e3d77"/>
    <path id="Caminho_86" data-name="Caminho 86" d="M791.9,469.424s12.46-.387,15.38-.956S825,467.106,825,467.106s-1.166-7.2-8.957-25.5c-5.291-12.427-1.434-19.739,1.611-23.147a12.825,12.825,0,0,1,2.672-2.352l22.186,1.08V416.5l-23.945-1.166a12.819,12.819,0,0,0-2.672,2.352c-3.03,3.413-6.9,10.72-1.611,23.147,7.81,18.282,8.966,25.484,8.966,25.484s-14.816.779-17.713,1.362-15.38.956-15.38.956-4.866,9.153,1.166,12.866c0,0,.182-.086.478-.21C787.789,477.162,791.9,469.424,791.9,469.424Z" transform="translate(-471.334 -273.803)" opacity="0.1"/>
    <rect id="Retângulo_24" data-name="Retângulo 24" width="12.068" height="30.56" transform="translate(344.123 70.064)" fill="#493545"/>
    <rect id="Retângulo_25" data-name="Retângulo 25" width="12.068" height="30.56" transform="translate(344.123 70.064)" opacity="0.1"/>
    <path id="Caminho_87" data-name="Caminho 87" d="M878.825,250.787c.416.115.884.129,1.166.7a4.3,4.3,0,0,1,.282,1.434l.76,9.444a5.259,5.259,0,0,0,.354,1.807c.32.64.851.717,1.267,1.128.836.832,1.08,2.915.851,4.612a30.3,30.3,0,0,1-1.262,4.684,44.112,44.112,0,0,1-1.993,6.524c-.913,1.854-2.571,2.868-3.642,1.31s-.927-4.7-1.128-7.279c-.335-4.3-2.012-8.01-2.127-12.341-.1-3.5.846-6.773,1.434-10.094.421-2.28.444-5.047,1.056-7.1C876.354,248.057,877.329,250.376,878.825,250.787Z" transform="translate(-515.732 -185.206)" fill="#493545"/>
    <path id="Caminho_88" data-name="Caminho 88" d="M878.825,250.787c.416.115.884.129,1.166.7a4.3,4.3,0,0,1,.282,1.434l.76,9.444a5.259,5.259,0,0,0,.354,1.807c.32.64.851.717,1.267,1.128.836.832,1.08,2.915.851,4.612a30.3,30.3,0,0,1-1.262,4.684,44.112,44.112,0,0,1-1.993,6.524c-.913,1.854-2.571,2.868-3.642,1.31s-.927-4.7-1.128-7.279c-.335-4.3-2.012-8.01-2.127-12.341-.1-3.5.846-6.773,1.434-10.094.421-2.28.444-5.047,1.056-7.1C876.354,248.057,877.329,250.376,878.825,250.787Z" transform="translate(-515.732 -185.206)" opacity="0.1"/>
    <path id="Caminho_89" data-name="Caminho 89" d="M763.375,212.579l-4.67,3.9s-.554-.65-1.381-1.7c-3.245-4.144-10.706-14.539-5.434-16.4s9.44,8.278,10.912,12.465C763.174,211.9,763.375,212.579,763.375,212.579Z" transform="translate(-451.37 -160.424)" fill="#c77485"/>
    <path id="Caminho_90" data-name="Caminho 90" d="M944.6,211.345c-1.945,2.92-4.67,0-4.67,0s-.349-.521-.841-1.362c-1.6-2.71-4.741-8.718-2.662-11.1,2.39-2.72,8.312,6.562,8.493,10.916A2.591,2.591,0,0,1,944.6,211.345Z" transform="translate(-548.305 -160.552)" fill="#c77485"/>
    <path id="Caminho_91" data-name="Caminho 91" d="M854.08,287.868s3.9,12.46,2.724,16.155,8.374,8,8.374,8h10.9s3.9-7.982,2.92-10.319-9.344-4.086-9.344-4.086-4.866,0-4.67-13.043Z" transform="translate(-505.675 -205.54)" fill="#c77485"/>
    <path id="Caminho_92" data-name="Caminho 92" d="M771.311,226.44l-4.67,3.9s-.555-.65-1.381-1.7c1.7-.3,4.33-2.777,5.482-3.933C771.11,225.761,771.311,226.44,771.311,226.44Z" transform="translate(-459.306 -174.285)" opacity="0.1"/>
    <path id="Caminho_93" data-name="Caminho 93" d="M948.261,223.788c-1.945,2.92-4.67,0-4.67,0s-.349-.521-.841-1.362l.062-.2c1.262.9,5.186.134,5.769,0a2.591,2.591,0,0,1-.32,1.558Z" transform="translate(-551.965 -172.995)" opacity="0.1"/>
    <path id="Caminho_94" data-name="Caminho 94" d="M872.765,420.069c-6.022,2.748-25.589-2.146-26.765-2.438a12.82,12.82,0,0,1,2.672-2.351l23.945,1.166A31.069,31.069,0,0,0,872.765,420.069Z" transform="translate(-501.456 -273.777)" opacity="0.1"/>
    <path id="Caminho_95" data-name="Caminho 95" d="M809.848,266.473s-4.67,1.558-11.289-4.478c0,0-14.817-14.6-15.772-18.1l-11.471-20.074s-4.865,5.257-6.816,4.478l12.847,22.387s2.337,4.3,4.478,5.449c0,0,15.964,20.442,16.155,24.528s7.193,15.032,7.193,15.032,2.337,17.713-1.754,20.829c0,0,22.774,5.841,27.64,1.945,0,0-2.141-21.986,0-24.332,0,0,6.62-7.786,2.141-16.351,0,0-.956-4.67,1.558-7.007s13.822-19.663,13.822-19.663,2.724-3.9,2.724-6.424c0,0,5.062-17.13,4.3-21.608,0,0-4.478.956-5.841,0,0,0-6.62,20.074-7.4,20.829s-6.213,16.547-13.43,18.3-8.369,2.528-8.369,2.528,14.013,8.761,7.2,12.651S809.848,266.473,809.848,266.473Z" transform="translate(-458.909 -173.439)" fill="#ffaac4"/>
    <path id="Caminho_96" data-name="Caminho 96" d="M865.674,291.7a37.2,37.2,0,0,1-.282-5.53l-10.9,3.307a14.72,14.72,0,0,1,.683,2.237c1.247.55,2.93,1.85,4.378,1.85A9.927,9.927,0,0,0,865.674,291.7Z" transform="translate(-505.889 -206.375)" opacity="0.1"/>
    <circle id="Elipse_4" data-name="Elipse 4" cx="10.123" cy="10.123" r="10.123" transform="translate(343.344 66.364)" fill="#c77485"/>
    <path id="Caminho_97" data-name="Caminho 97" d="M830.106,246.471c-2.227.172-4.713,1.711-4.588,3.943.067,1.228.908,2.266,1.276,3.441.884,2.844-1.085,5.7-2.815,8.125s-3.346,5.645-1.864,8.216a20.241,20.241,0,0,0,1.367,1.783c1.831,2.471,1.807,5.807,2.619,8.775a15.4,15.4,0,0,0,18.086,10.993,9.626,9.626,0,0,1-2.031-6.51c.11-1.7.66-3.479,0-5.052-.851-2.022-3.346-2.82-4.631-4.588s-1.2-4.22-.578-6.328,1.7-4.063,2.213-6.213a18.719,18.719,0,0,1,.478-1.859c.9-2.552,3.585-4.034,6.213-4.67s5.391-.674,7.958-1.51,5.062-2.8,5.358-5.487c-2.16.865-4.163-1.391-6.247-2.428-3.432-1.7-7.346-.1-10.883.292C838.006,247.842,834.183,246.174,830.106,246.471Z" transform="translate(-488.683 -185.579)" opacity="0.1"/>
    <path id="Caminho_98" data-name="Caminho 98" d="M829.7,245.661c-2.227.172-4.713,1.711-4.588,3.943.067,1.228.908,2.265,1.276,3.441.884,2.844-1.085,5.7-2.815,8.125s-3.346,5.645-1.864,8.216a20.265,20.265,0,0,0,1.367,1.783c1.831,2.471,1.807,5.807,2.619,8.775a15.4,15.4,0,0,0,18.086,10.993,9.627,9.627,0,0,1-2.031-6.51c.11-1.7.66-3.479,0-5.052-.851-2.022-3.346-2.82-4.631-4.588s-1.2-4.22-.578-6.328,1.7-4.063,2.213-6.213a18.7,18.7,0,0,1,.478-1.859c.9-2.552,3.585-4.034,6.213-4.67s5.391-.674,7.958-1.51,5.061-2.8,5.358-5.487c-2.16.865-4.163-1.391-6.247-2.428-3.432-1.7-7.346-.1-10.883.292C837.606,247.027,833.8,245.34,829.7,245.661Z" transform="translate(-488.469 -185.156)" fill="#493545"/>
    <path id="Caminho_99" data-name="Caminho 99" d="M885.65,326.3s4.053,3.618,4.851,5.214" transform="translate(-522.156 -227.325)" opacity="0.1"/>
    <path id="Caminho_100" data-name="Caminho 100" d="M887.2,371.51a43.6,43.6,0,0,0-7.4.583c-2.337.583-7.982,0-7.982,0" transform="translate(-514.936 -250.927)" opacity="0.1"/>
    <g id="Grupo_16" data-name="Grupo 16" transform="translate(305.586 49.627)" opacity="0.1">
      <path id="Caminho_101" data-name="Caminho 101" d="M888.983,322.861a4.867,4.867,0,0,1-1.4.535,5.353,5.353,0,0,0,3.738-.535c6.816-3.9-7.2-12.651-7.2-12.651H881.78S895.8,318.971,888.983,322.861Z" transform="translate(-825.721 -268.552)"/>
      <path id="Caminho_102" data-name="Caminho 102" d="M952.491,223.4a2.027,2.027,0,0,0-.048-.354,22.869,22.869,0,0,1-2.423.368A10.737,10.737,0,0,0,952.491,223.4Z" transform="translate(-861.346 -223.05)"/>
      <path id="Caminho_103" data-name="Caminho 103" d="M805.756,322.232c4.086-3.116,1.754-20.829,1.754-20.829s-7.007-10.9-7.2-14.988-16.155-24.528-16.155-24.528c-2.141-1.166-4.478-5.449-4.478-5.449s-13.239-21.608-15.184-22.387l12.847,22.387s2.337,4.3,4.478,5.449c0,0,15.964,20.442,16.155,24.528s7.2,15,7.2,15,2.337,17.713-1.754,20.829c0,0,14,3.589,22.392,3.264C817.394,325.214,805.756,322.232,805.756,322.232Z" transform="translate(-764.49 -228.793)"/>
      <path id="Caminho_104" data-name="Caminho 104" d="M859.051,314.028l-.115-.148a3.086,3.086,0,0,1-.406.091C858.712,313.995,858.884,314.014,859.051,314.028Z" transform="translate(-813.584 -270.468)"/>
    </g>
    <g id="Grupo_17" data-name="Grupo 17" transform="translate(371.964 49.603)" opacity="0.1">
      <path id="Caminho_105" data-name="Caminho 105" d="M930.227,223l-.119.024c-.206,5.979-4.354,20.026-4.354,20.026,0,2.528-2.724,6.424-2.724,6.424S911.74,266.8,909.207,269.137s-1.558,7.007-1.558,7.007l.024.048c-.076-1.572.115-4.01,1.725-5.5,2.528-2.337,13.822-19.663,13.822-19.663s2.724-3.9,2.724-6.424C925.945,244.632,931.006,227.5,930.227,223Z" transform="translate(-905.507 -223)"/>
      <path id="Caminho_106" data-name="Caminho 106" d="M903.37,356.459c.292,1.654.1-.1.2,1.558,0,0,4.78-5.606,3.475-12.537A17.043,17.043,0,0,1,903.37,356.459Z" transform="translate(-903.37 -286.941)"/>
    </g>
    <path id="Caminho_107" data-name="Caminho 107" d="M426.118,615.6s-6.959-23.635,1.3-41.027a37.328,37.328,0,0,0,3.021-23.42,62.776,62.776,0,0,0-3.317-10.993" transform="translate(-280.827 -338.971)" fill="none" stroke="#535461" stroke-miterlimit="10" stroke-width="2"/>
    <path id="Caminho_108" data-name="Caminho 108" d="M430.5,511.014c0,2.9-5.257,11.294-5.257,11.294s-5.257-8.4-5.257-11.294a5.257,5.257,0,1,1,10.486,0Z" transform="translate(-279.047 -320.808)" fill="#6c63ff"/>
    <path id="Caminho_109" data-name="Caminho 109" d="M448.6,541.546c-1.572,2.433-10.539,6.629-10.539,6.629s.163-9.9,1.735-12.331a5.257,5.257,0,1,1,8.8,5.7Z" transform="translate(-288.491 -335.299)" fill="#6c63ff"/>
    <path id="Caminho_110" data-name="Caminho 110" d="M445.747,597.059c-2.586,1.3-12.427.4-12.427.4s5.138-8.464,7.724-9.769a5.257,5.257,0,1,1,4.722,9.363Z" transform="translate(-286.017 -363.392)" fill="#6c63ff"/>
    <path id="Caminho_111" data-name="Caminho 111" d="M435.622,641.32c-2.328,1.721-12.2,2.5-12.2,2.5s3.632-9.21,5.965-10.936a5.257,5.257,0,0,1,6.213,8.431Z" transform="translate(-280.849 -386.978)" fill="#6c63ff"/>
    <path id="Caminho_112" data-name="Caminho 112" d="M412.954,555.653c2.079,2.017,11.758,4.11,11.758,4.11s-2.39-9.612-4.45-11.633a5.257,5.257,0,1,0-7.308,7.523Z" transform="translate(-274.407 -342.214)" fill="#6c63ff"/>
    <path id="Caminho_113" data-name="Caminho 113" d="M400.742,605.9c2.586,1.3,12.427.4,12.427.4s-5.119-8.464-7.7-9.745a5.257,5.257,0,0,0-4.722,9.363Z" transform="translate(-267.677 -368.204)" fill="#6c63ff"/>
    <path id="Caminho_114" data-name="Caminho 114" d="M396.4,656.755c2.328,1.721,12.2,2.5,12.2,2.5s-3.632-9.21-5.965-10.935a5.257,5.257,0,1,0-6.213,8.431Z" transform="translate(-265.434 -394.746)" fill="#6c63ff"/>
    <path id="Caminho_115" data-name="Caminho 115" d="M430.5,511.014c0,2.9-5.257,11.294-5.257,11.294s-5.257-8.4-5.257-11.294a5.257,5.257,0,1,1,10.486,0Z" transform="translate(-279.047 -320.808)" fill="#abd8ff"/>
    <path id="Caminho_116" data-name="Caminho 116" d="M448.6,541.546c-1.572,2.433-10.539,6.629-10.539,6.629s.163-9.9,1.735-12.331a5.257,5.257,0,1,1,8.8,5.7Z" transform="translate(-288.491 -335.299)" fill="#abd8ff"/>
    <path id="Caminho_117" data-name="Caminho 117" d="M445.747,597.059c-2.586,1.3-12.427.4-12.427.4s5.138-8.464,7.724-9.769a5.257,5.257,0,1,1,4.722,9.363Z" transform="translate(-286.017 -363.392)" fill="#abd8ff"/>
    <path id="Caminho_118" data-name="Caminho 118" d="M435.622,641.32c-2.328,1.721-12.2,2.5-12.2,2.5s3.632-9.21,5.965-10.936a5.257,5.257,0,0,1,6.213,8.431Z" transform="translate(-280.849 -386.978)" fill="#abd8ff"/>
    <path id="Caminho_119" data-name="Caminho 119" d="M412.954,555.653c2.079,2.017,11.758,4.11,11.758,4.11s-2.39-9.612-4.45-11.633a5.257,5.257,0,1,0-7.308,7.523Z" transform="translate(-274.407 -342.214)" fill="#abd8ff"/>
    <path id="Caminho_120" data-name="Caminho 120" d="M400.742,605.9c2.586,1.3,12.427.4,12.427.4s-5.119-8.464-7.7-9.745a5.257,5.257,0,0,0-4.722,9.363Z" transform="translate(-267.677 -368.204)" fill="#abd8ff"/>
    <path id="Caminho_121" data-name="Caminho 121" d="M396.4,656.755c2.328,1.721,12.2,2.5,12.2,2.5s-3.632-9.21-5.965-10.935a5.257,5.257,0,1,0-6.213,8.431Z" transform="translate(-265.434 -394.746)" fill="#abd8ff"/>
    <path id="Caminho_122" data-name="Caminho 122" d="M720.758,616.31s-6.959-23.635,1.3-41.027a37.329,37.329,0,0,0,3.021-23.42,62.777,62.777,0,0,0-3.317-10.993" transform="translate(-434.643 -339.341)" fill="none" stroke="#535461" stroke-miterlimit="10" stroke-width="2"/>
    <path id="Caminho_123" data-name="Caminho 123" d="M725.135,512.561c0,2.9-5.257,11.294-5.257,11.294s-5.257-8.4-5.257-11.294a5.257,5.257,0,0,1,10.486,0Z" transform="translate(-432.869 -322.021)" fill="#6c63ff"/>
    <path id="Caminho_124" data-name="Caminho 124" d="M743.249,542.245c-1.572,2.433-10.539,6.629-10.539,6.629s.162-9.9,1.735-12.331a5.258,5.258,0,1,1,8.8,5.7Z" transform="translate(-442.313 -335.665)" fill="#6c63ff"/>
    <path id="Caminho_125" data-name="Caminho 125" d="M740.427,597.748c-2.586,1.3-12.427.4-12.427.4s5.138-8.464,7.724-9.769a5.257,5.257,0,1,1,4.7,9.368Z" transform="translate(-439.854 -363.747)" fill="#6c63ff"/>
    <path id="Caminho_126" data-name="Caminho 126" d="M730.262,642.02c-2.328,1.721-12.2,2.5-12.2,2.5s3.632-9.21,5.965-10.936a5.257,5.257,0,0,1,6.213,8.431Z" transform="translate(-434.665 -387.344)" fill="#6c63ff"/>
    <path id="Caminho_127" data-name="Caminho 127" d="M707.614,556.353c2.079,2.017,11.758,4.11,11.758,4.11s-2.39-9.612-4.45-11.633a5.257,5.257,0,1,0-7.308,7.523Z" transform="translate(-428.234 -342.579)" fill="#6c63ff"/>
    <path id="Caminho_128" data-name="Caminho 128" d="M695.362,606.578c2.586,1.3,12.427.4,12.427.4s-5.138-8.464-7.724-9.769a5.257,5.257,0,0,0-4.722,9.363Z" transform="translate(-421.473 -368.543)" fill="#6c63ff"/>
    <path id="Caminho_129" data-name="Caminho 129" d="M691.868,658.06c2.328,1.721,12.2,2.5,12.2,2.5s-3.632-9.21-5.965-10.935a5.257,5.257,0,0,0-6.213,8.431Z" transform="translate(-420.078 -395.717)" fill="#6c63ff"/>
    <path id="Caminho_130" data-name="Caminho 130" d="M725.135,512.561c0,2.9-5.257,11.294-5.257,11.294s-5.257-8.4-5.257-11.294a5.257,5.257,0,0,1,10.486,0Z" transform="translate(-432.869 -322.021)" fill="#63dfff"/>
    <path id="Caminho_131" data-name="Caminho 131" d="M743.249,542.245c-1.572,2.433-10.539,6.629-10.539,6.629s.162-9.9,1.735-12.331a5.258,5.258,0,1,1,8.8,5.7Z" transform="translate(-442.313 -335.665)" fill="#63c1ff"/>
    <path id="Caminho_132" data-name="Caminho 132" d="M740.427,597.748c-2.586,1.3-12.427.4-12.427.4s5.138-8.464,7.724-9.769a5.257,5.257,0,1,1,4.7,9.368Z" transform="translate(-439.854 -363.747)" fill="#63c1ff"/>
    <path id="Caminho_133" data-name="Caminho 133" d="M730.262,642.02c-2.328,1.721-12.2,2.5-12.2,2.5s3.632-9.21,5.965-10.936a5.257,5.257,0,0,1,6.213,8.431Z" transform="translate(-434.665 -387.344)" fill="#63dfff"/>
    <path id="Caminho_134" data-name="Caminho 134" d="M707.614,556.353c2.079,2.017,11.758,4.11,11.758,4.11s-2.39-9.612-4.45-11.633a5.257,5.257,0,1,0-7.308,7.523Z" transform="translate(-428.234 -342.579)" fill="#63c1ff"/>
    <path id="Caminho_135" data-name="Caminho 135" d="M695.362,606.578c2.586,1.3,12.427.4,12.427.4s-5.138-8.464-7.724-9.769a5.257,5.257,0,0,0-4.722,9.363Z" transform="translate(-421.473 -368.543)" fill="#63dfff"/>
    <path id="Caminho_136" data-name="Caminho 136" d="M691.868,658.06c2.328,1.721,12.2,2.5,12.2,2.5s-3.632-9.21-5.965-10.935a5.257,5.257,0,0,0-6.213,8.431Z" transform="translate(-420.078 -395.717)" fill="#63dfff" opacity="0.96"/>
    <path id="Caminho_137" data-name="Caminho 137" d="M761.422,129.959h-3a2.1,2.1,0,1,0,0-4.2H734.083a2.1,2.1,0,0,0,0,4.2h3a2.1,2.1,0,0,0,0,4.2h-4.2a2.1,2.1,0,1,0,0,4.2H757.2a2.1,2.1,0,1,0,0-4.2h4.22a2.1,2.1,0,0,0,0-4.2Z" transform="translate(-441.254 -122.631)" fill="#dee3f3" opacity="0.5"/>
    <path id="Caminho_138" data-name="Caminho 138" d="M475.229,156.695h-2.285a1.6,1.6,0,1,0,0-3.2H454.438a1.6,1.6,0,0,0,0,3.2h2.285a1.6,1.6,0,1,0,0,3.2h-3.2a1.6,1.6,0,1,0,0,3.2h18.506a1.6,1.6,0,1,0,0-3.2h3.2a1.6,1.6,0,0,0,0-3.2Z" transform="translate(-295.684 -137.112)" fill="#dee3f3" opacity="0.5"/>
    <path id="Caminho_139" data-name="Caminho 139" d="M174.33,634s8.364,16.417,1.549,25.4.621,33.456.621,33.456" transform="translate(-150.118 -387.96)" fill="none" stroke="#6c63ff" stroke-miterlimit="10" stroke-width="1"/>
    <path id="Caminho_140" data-name="Caminho 140" d="M175.926,617a9.674,9.674,0,0,1-2.323,5.735,8.242,8.242,0,0,1,0-11.471A9.674,9.674,0,0,1,175.926,617Z" transform="translate(-149.219 -376.088)" fill="#82b4ff"/>
    <path id="Caminho_141" data-name="Caminho 141" d="M180.238,634s-8.364,16.417-1.549,25.4-.621,33.456-.621,33.456" transform="translate(-151.691 -387.96)" fill="none" stroke="#6c63ff" stroke-miterlimit="10" stroke-width="1"/>
    <path id="Caminho_142" data-name="Caminho 142" d="M179.67,617a9.674,9.674,0,0,0,2.323,5.735,8.242,8.242,0,0,0,0-11.471A9.674,9.674,0,0,0,179.67,617Z" transform="translate(-153.599 -376.088)" fill="#6c63ff"/>
    <path id="Caminho_143" data-name="Caminho 143" d="M179.67,617a9.674,9.674,0,0,0,2.323,5.735,8.242,8.242,0,0,0,0-11.471A9.674,9.674,0,0,0,179.67,617Z" transform="translate(-153.599 -376.088)" fill="#82b4ff"/>
    <path id="Caminho_144" data-name="Caminho 144" d="M190.55,634s8.364,16.417,1.549,25.4.621,33.456.621,33.456" transform="translate(-158.586 -387.96)" fill="none" stroke="#6c63ff" stroke-miterlimit="10" stroke-width="1"/>
    <path id="Caminho_145" data-name="Caminho 145" d="M192.1,617a9.674,9.674,0,0,1-2.323,5.735,8.242,8.242,0,0,1,0-11.471A9.674,9.674,0,0,1,192.1,617Z" transform="translate(-157.66 -376.088)" fill="#6c63ff"/>
    <path id="Caminho_146" data-name="Caminho 146" d="M188.269,644.515a9.657,9.657,0,0,1-5.649,2.519,8.229,8.229,0,0,1,7.948-8.254A9.758,9.758,0,0,1,188.269,644.515Z" transform="translate(-155.139 -390.455)" fill="#6c63ff"/>
    <path id="Caminho_147" data-name="Caminho 147" d="M188.729,668.215a9.657,9.657,0,0,1-5.649,2.519,8.229,8.229,0,0,1,7.948-8.254A9.651,9.651,0,0,1,188.729,668.215Z" transform="translate(-155.379 -402.828)" fill="#6c63ff"/>
    <path id="Caminho_148" data-name="Caminho 148" d="M163.98,684.446a9.652,9.652,0,0,1,2,5.85,8.232,8.232,0,0,1-7.513-8.656A9.653,9.653,0,0,1,163.98,684.446Z" transform="translate(-142.531 -412.83)" fill="#82b4ff"/>
    <path id="Caminho_149" data-name="Caminho 149" d="M167.38,635.576a9.654,9.654,0,0,1,3.494,5.1,8.228,8.228,0,0,1-9.554-6.333A9.557,9.557,0,0,1,167.38,635.576Z" transform="translate(-144.019 -388.102)" fill="#6c63ff"/>
    <path id="Caminho_150" data-name="Caminho 150" d="M167.38,635.576a9.654,9.654,0,0,1,3.494,5.1,8.228,8.228,0,0,1-9.554-6.333A9.557,9.557,0,0,1,167.38,635.576Z" transform="translate(-144.019 -388.102)" fill="#82b4ff"/>
    <path id="Caminho_151" data-name="Caminho 151" d="M196.438,634s-8.364,16.417-1.549,25.4-.621,33.456-.621,33.456" transform="translate(-160.148 -387.96)" fill="none" stroke="#6c63ff" stroke-miterlimit="10" stroke-width="1"/>
    <path id="Caminho_152" data-name="Caminho 152" d="M195.87,617a9.674,9.674,0,0,0,2.323,5.735,8.242,8.242,0,0,0,0-11.471A9.674,9.674,0,0,0,195.87,617Z" transform="translate(-162.056 -376.088)" fill="#6c63ff"/>
    <path id="Caminho_153" data-name="Caminho 153" d="M195.87,617a9.674,9.674,0,0,0,2.323,5.735,8.242,8.242,0,0,0,0-11.471A9.674,9.674,0,0,0,195.87,617Z" transform="translate(-162.056 -376.088)" fill="#82b4ff"/>
    <path id="Caminho_154" data-name="Caminho 154" d="M194.66,648.612a9.788,9.788,0,0,0-2.39,5.735,9.644,9.644,0,0,0,5.678-2.452,9.788,9.788,0,0,0,2.39-5.735A9.644,9.644,0,0,0,194.66,648.612Z" transform="translate(-160.177 -394.308)" fill="#6c63ff"/>
    <path id="Caminho_155" data-name="Caminho 155" d="M194.66,648.612a9.788,9.788,0,0,0-2.39,5.735,9.644,9.644,0,0,0,5.678-2.452,9.788,9.788,0,0,0,2.39-5.735A9.644,9.644,0,0,0,194.66,648.612Z" transform="translate(-160.177 -394.308)" fill="#82b4ff"/>
    <path id="Caminho_156" data-name="Caminho 156" d="M203.77,681.422a9.788,9.788,0,0,0-2.39,5.735,9.644,9.644,0,0,0,5.678-2.452,9.788,9.788,0,0,0,2.39-5.735A9.611,9.611,0,0,0,203.77,681.422Z" transform="translate(-164.933 -411.436)" fill="#82b4ff"/>
    <path id="Caminho_157" data-name="Caminho 157" d="M193,668.015s5.033-7.934,12.1-8.125" transform="translate(-160.558 -401.476)" fill="none" stroke="#6c63ff" stroke-miterlimit="10" stroke-width="1"/>
    <path id="Caminho_158" data-name="Caminho 158" d="M171.552,657.985s-5.033-7.934-12.1-8.125" transform="translate(-143.043 -396.239)" fill="#82b4ff" stroke="#6c63ff" stroke-miterlimit="10" stroke-width="1"/>
    <path id="Caminho_159" data-name="Caminho 159" d="M183.4,681.685s5.033-7.934,12.1-8.125" transform="translate(-155.546 -408.612)" fill="none" stroke="#6c63ff" stroke-miterlimit="10" stroke-width="1"/>
    <circle id="Elipse_6" data-name="Elipse 6" cx="1.305" cy="1.305" r="1.305" transform="translate(42.995 257.067)" fill="#6c63ff"/>
    <circle id="Elipse_7" data-name="Elipse 7" cx="1.305" cy="1.305" r="1.305" transform="translate(15.226 252.383)" fill="#6c63ff"/>
    <path id="Caminho_160" data-name="Caminho 160" d="M177.932,687.125s-5.033-7.934-12.1-8.125" transform="translate(-146.374 -411.452)" fill="none" stroke="#6c63ff" stroke-miterlimit="10" stroke-width="1"/>
    <circle id="Elipse_8" data-name="Elipse 8" cx="1.305" cy="1.305" r="1.305" transform="translate(18.276 266.32)" fill="#6c63ff"/>
    <circle id="Elipse_9" data-name="Elipse 9" cx="1.305" cy="1.305" r="1.305" transform="translate(38.746 263.71)" fill="#6c63ff"/>
    <path id="Caminho_161" data-name="Caminho 161" d="M197.352,724.132s-12.13-2.428-15.371-5.664-17.789-8.895-19.41-4.851-21.838,17.794-8.087,20.222,32.352,3.236,36.4,1.615S197.352,724.132,197.352,724.132Z" transform="translate(-137.963 -428.792)" fill="#a8a8a8"/>
    <path id="Caminho_162" data-name="Caminho 162" d="M154.491,745.258c13.751,2.428,32.352,3.236,36.4,1.615,3.078-1.233,5.219-7.169,6.065-9.9l.406.086s-2.428,9.707-6.471,11.323-22.645.808-36.4-1.616c-3.967-.7-5.1-2.347-4.674-4.426C150.151,743.676,151.537,744.737,154.491,745.258Z" transform="translate(-137.969 -441.715)" opacity="0.2"/>
    <path id="Caminho_163" data-name="Caminho 163" d="M1007.895,641.78s4.005,5.257-1.85,13.144-10.682,14.582-8.727,19.515c0,0,8.832-14.687,16.021-14.893S1015.8,650.608,1007.895,641.78Z" transform="translate(-580.221 -392.021)" fill="#63c1ff"/>
    <path id="Caminho_164" data-name="Caminho 164" d="M1008.142,641.78a6.482,6.482,0,0,1,.817,1.644c7.016,8.24,10.749,15.93,4.01,16.126-6.28.182-13.813,11.409-15.619,14.248a6.037,6.037,0,0,0,.215.645s8.832-14.687,16.021-14.893S1016.052,650.608,1008.142,641.78Z" transform="translate(-580.469 -392.021)" opacity="0.1"/>
    <path id="Caminho_165" data-name="Caminho 165" d="M1034.466,654.46c0,1.845-.205,3.346-.478,3.346s-.478-1.5-.478-3.346.258-.956.511-.956S1034.466,652.62,1034.466,654.46Z" transform="translate(-599.346 -398.029)" fill="#ffd037"/>
    <path id="Caminho_166" data-name="Caminho 166" d="M1037.411,658.971c-1.62.884-3.03,1.434-3.15,1.19s1.09-1.123,2.71-2,.98-.239,1.1,0S1039.026,658.087,1037.411,658.971Z" transform="translate(-599.734 -400.337)" fill="#ffd037"/>
    <path id="Caminho_167" data-name="Caminho 167" d="M965.852,641.78s-4.005,5.257,1.85,13.144,10.682,14.582,8.727,19.515c0,0-8.833-14.687-16.021-14.893S957.941,650.608,965.852,641.78Z" transform="translate(-559.332 -392.021)" fill="#63c1ff"/>
    <path id="Caminho_168" data-name="Caminho 168" d="M965.852,641.78a6.5,6.5,0,0,0-.817,1.644c-7.016,8.24-10.749,15.93-4.01,16.126,6.28.182,13.813,11.409,15.62,14.248a6.079,6.079,0,0,1-.215.645s-8.833-14.687-16.021-14.893S957.941,650.608,965.852,641.78Z" transform="translate(-559.332 -392.021)" opacity="0.1"/>
    <path id="Caminho_169" data-name="Caminho 169" d="M960.09,654.46c0,1.845.206,3.346.478,3.346s.478-1.5.478-3.346-.258-.956-.511-.956S960.09,652.62,960.09,654.46Z" transform="translate(-561.017 -398.029)" fill="#ffd037"/>
    <path id="Caminho_170" data-name="Caminho 170" d="M953.661,658.971c1.62.884,3.03,1.434,3.15,1.19s-1.09-1.123-2.71-2-.98-.239-1.1,0S952.041,658.087,953.661,658.971Z" transform="translate(-557.145 -400.337)" fill="#ffd037"/>
    <path id="Caminho_171" data-name="Caminho 171" d="M962.76,702.063s11.2-.344,14.573-2.748,17.206-5.257,18.062-1.434,16.829,19.171,4.187,19.271-29.375-1.969-32.744-4.02S962.76,702.063,962.76,702.063Z" transform="translate(-562.411 -420.334)" fill="#a8a8a8"/>
    <path id="Caminho_172" data-name="Caminho 172" d="M999.806,722.424c-12.642.1-29.375-1.969-32.745-4.02-2.567-1.563-3.589-7.169-3.929-9.755h-.373s.707,9.033,4.077,11.084,20.1,4.125,32.744,4.02c3.652-.029,4.909-1.329,4.842-3.25C1003.916,721.674,1002.545,722.4,999.806,722.424Z" transform="translate(-562.411 -426.931)" opacity="0.2"/>
    <path id="Caminho_173" data-name="Caminho 173" d="M269.6,189.289h-3a2.1,2.1,0,1,0,0-4.2H242.282a2.1,2.1,0,0,0,0,4.2h3a2.1,2.1,0,0,0,0,4.2h-4.2a2.1,2.1,0,0,0,0,4.2H265.4a2.1,2.1,0,1,0,0-4.2h4.2a2.1,2.1,0,0,0,0-4.2Z" transform="translate(-184.614 -153.604)" fill="#dee3f3" opacity="0.5"/>
  </g>
</svg>
