<svg xmlns="http://www.w3.org/2000/svg" xmlns:xlink="http://www.w3.org/1999/xlink" width="184.155" height="70.512" viewBox="0 0 184.155 70.512">
  <defs>
    <filter id="logo-depin" x="0" y="0" width="184.155" height="70.512" filterUnits="userSpaceOnUse">
      <feOffset dy="7" input="SourceAlpha"/>
      <feGaussianBlur stdDeviation="3" result="blur"/>
      <feFlood flood-opacity="0.161"/>
      <feComposite operator="in" in2="blur"/>
      <feComposite in="SourceGraphic"/>
    </filter>
  </defs>
  <g transform="matrix(1, 0, 0, 1, 0, 0)" filter="url(#logo-depin)">
    <path id="logo-depin-2" data-name="logo-depin" d="M-1476.422-3859.49a1.6,1.6,0,0,1-.7-.161l.141-.417a1.168,1.168,0,0,0,.551.12c.226,0,.409-.078.409-.276s-.3-.353-.769-.4l.416-.706a2.943,2.943,0,0,1-2.067-.967,2.938,2.938,0,0,1-.755-2.153,3.2,3.2,0,0,1,3.464-3.273,3.85,3.85,0,0,1,1.595.26l-.2.656a3.325,3.325,0,0,0-1.341-.254,2.4,2.4,0,0,0-1.895.683,2.393,2.393,0,0,0-.706,1.886,2.339,2.339,0,0,0,.7,1.844,2.341,2.341,0,0,0,1.859.655,3.68,3.68,0,0,0,1.411-.254l.176.635a4.4,4.4,0,0,1-1.743.3l-.226.366a.764.764,0,0,1,.706.706c0,.529-.5.748-1.017.748Zm93.542-2.728a2.927,2.927,0,0,1-.792-2.24,3.041,3.041,0,0,1,.819-2.318,3.047,3.047,0,0,1,2.265-.957,2.915,2.915,0,0,1,2.2.911,2.912,2.912,0,0,1,.787,2.244,3.02,3.02,0,0,1-.81,2.326,3.022,3.022,0,0,1-2.273.949h-.065a2.93,2.93,0,0,1-2.127-.918Zm.125-2.258a2.266,2.266,0,0,0,2.117,2.518c1.348,0,2.117-1.171,2.117-2.583a2.285,2.285,0,0,0-2.117-2.533c-1.411,0-2.115,1.226-2.115,2.594Zm-17.088,2.258a2.928,2.928,0,0,1-.792-2.239,3.04,3.04,0,0,1,.818-2.318,3.045,3.045,0,0,1,2.265-.956,2.915,2.915,0,0,1,2.2.91,2.912,2.912,0,0,1,.788,2.244,3.019,3.019,0,0,1-.81,2.326,3.021,3.021,0,0,1-2.273.949h-.065a2.93,2.93,0,0,1-2.128-.918Zm.125-2.258a2.266,2.266,0,0,0,2.117,2.518c1.348,0,2.117-1.171,2.117-2.583a2.285,2.285,0,0,0-2.117-2.533c-1.411,0-2.115,1.226-2.115,2.594Zm-61.117,2.258a2.926,2.926,0,0,1-.792-2.24,3.034,3.034,0,0,1,.816-2.32,3.035,3.035,0,0,1,2.268-.954,2.916,2.916,0,0,1,2.2.91,2.914,2.914,0,0,1,.787,2.244,3.02,3.02,0,0,1-.811,2.326,3.02,3.02,0,0,1-2.274.949h-.066a2.928,2.928,0,0,1-2.127-.918Zm.1-2.258a2.262,2.262,0,0,0,2.117,2.518c1.355,0,2.117-1.171,2.117-2.583a2.285,2.285,0,0,0-2.117-2.533c-1.411,0-2.114,1.226-2.114,2.594Zm-44.126,2.258a2.924,2.924,0,0,1-.792-2.239,3.037,3.037,0,0,1,.819-2.318,3.044,3.044,0,0,1,2.266-.956,2.912,2.912,0,0,1,2.2.91,2.914,2.914,0,0,1,.787,2.244,3.02,3.02,0,0,1-.811,2.326,3.021,3.021,0,0,1-2.273.949h-.066a2.929,2.929,0,0,1-2.127-.918Zm.124-2.258a2.266,2.266,0,0,0,2.117,2.518c1.347,0,2.117-1.171,2.117-2.583a2.285,2.285,0,0,0-2.117-2.533c-1.411,0-2.114,1.226-2.114,2.594Zm89.273,3.167a3.006,3.006,0,0,1-3.281-3.147,3.161,3.161,0,0,1,3.465-3.275,3.908,3.908,0,0,1,1.581.276l-.212.656a3.279,3.279,0,0,0-1.341-.254,2.391,2.391,0,0,0-1.89.684,2.389,2.389,0,0,0-.7,1.884,2.34,2.34,0,0,0,.7,1.844,2.341,2.341,0,0,0,1.859.655,3.675,3.675,0,0,0,1.411-.254l.162.635a4.483,4.483,0,0,1-1.607.3Zm42.456-.847a3.109,3.109,0,0,1-.938-2.321c0-1.857,1.369-3.218,3.6-3.218a4.325,4.325,0,0,1,1.651.289l-.205.656a3.593,3.593,0,0,0-1.468-.267,2.406,2.406,0,0,0-2.667,2.5,2.361,2.361,0,0,0,.7,1.847,2.358,2.358,0,0,0,1.861.665,2.982,2.982,0,0,0,1.142-.169v-1.852h-1.355v-.657h2.187l.014,3a6.633,6.633,0,0,1-2.039.338c-.066,0-.132.007-.2.007a3.584,3.584,0,0,1-2.284-.824Zm-17.506.783.014-6.259h.854v5.553h2.823v.706Zm-35.647,0v-6.259h3.584v.706h-2.731v1.94h2.583l.008.663h-2.583v2.243h2.88v.706Zm-20.293,0v-6.259h3.592v.706h-2.731v1.94h2.583v.663h-2.583v2.243h2.872v.706Zm91.686-.028-.706-1.962h-2.357l-.705,1.962h-.875l2.258-6.231h1.038l2.264,6.231Zm-2.215-4.388-.67,1.771h2l-.649-1.764c-.149-.4-.248-.776-.347-1.135-.1.369-.2.743-.328,1.125Zm-7.233,4.388v-6.231h.857v6.231Zm-41.377,0-2.117-3.161a20.023,20.023,0,0,1-1.242-2.074c.05.783.07,1.53.07,2.568v2.661l-.8.007v-6.231h.938l2.117,3.155a15.98,15.98,0,0,1,1.193,2.025c-.078-.826-.1-1.588-.1-2.554v-2.626h.811v6.231Zm-27.131,0-.021-5.546h-2.025v-.706h4.939v.706h-2.032v5.546Zm-33.212,0-.705-1.962H-1469l-.706,1.962h-.868l2.258-6.231h1.03l2.265,6.231Zm-2.215-4.388-.671,1.771h2l-.649-1.764c-.148-.4-.248-.776-.346-1.135-.1.369-.2.743-.329,1.125Zm-15.333,4.388-.706-1.962h-2.357l-.706,1.962h-.875l2.258-6.231h1.037l2.265,6.231Zm-2.216-4.388-.67,1.771h2l-.648-1.764c-.148-.4-.248-.776-.347-1.135-.1.369-.2.743-.329,1.125Zm-8.354,4.388-2.166-6.231h.91l1.03,3.069a23.6,23.6,0,0,1,.706,2.328c.183-.705.459-1.5.755-2.322l1.123-3.077h.917l-2.37,6.231Zm-16.525,0-2.117-3.161a21.131,21.131,0,0,1-1.235-2.074c.049.783.071,1.53.071,2.568v2.661l-.833.007v-6.231h.931l2.117,3.155a16.83,16.83,0,0,1,1.192,2.024,24.292,24.292,0,0,1-.1-2.553v-2.626h.805v6.231Zm-9.426,0v-6.231h.854v6.231Zm51-6.6c0-.564.246-.946.706-.946a1.323,1.323,0,0,1,.593.184,1.081,1.081,0,0,0,.466.169c.155,0,.247-.063.261-.36h.466c0,.578-.2.9-.706.9a1.359,1.359,0,0,1-.572-.191,1.155,1.155,0,0,0-.494-.162c-.155,0-.225.162-.253.41Zm77.281-26.195a18.5,18.5,0,0,1,1.352-7.127,17.2,17.2,0,0,1,3.729-5.645,16.876,16.876,0,0,1,5.622-3.7,19.781,19.781,0,0,1,14.264,0,16.866,16.866,0,0,1,5.658,3.74,17.226,17.226,0,0,1,3.715,5.645,18.471,18.471,0,0,1,1.341,7.085v18.162h-8.006V-3894.2a10.441,10.441,0,0,0-.734-3.975,9.06,9.06,0,0,0-2.034-3.07,9.168,9.168,0,0,0-3.111-1.97,10.817,10.817,0,0,0-3.962-.7,11.034,11.034,0,0,0-3.989.7,8.807,8.807,0,0,0-5.133,5.049,10.547,10.547,0,0,0-.706,3.989v18.163h-8.007Zm-10.689-17.53h8.076v35.691h-8.076Zm-39.037,0h24.581a10.8,10.8,0,0,1,7.726,3.161,10.953,10.953,0,0,1,3.135,7.743l-.011.014a11.5,11.5,0,0,1-.8,4.291,10.382,10.382,0,0,1-5.681,5.826,11.023,11.023,0,0,1-4.382.853h-16.56v13.8h-8.007Zm8.007,13.8h16.56a2.857,2.857,0,0,0,2.072-.815,2.761,2.761,0,0,0,.839-2.071,2.85,2.85,0,0,0-.825-2.075,2.809,2.809,0,0,0-2.086-.839h-16.56Zm-29.026,21.75h-.182a18.509,18.509,0,0,1-6.947-1.352h0a17.244,17.244,0,0,1-5.639-3.726,16.794,16.794,0,0,1-3.7-5.645,18.77,18.77,0,0,1-1.327-7.127,18.655,18.655,0,0,1,1.356-7.132,16.852,16.852,0,0,1,3.725-5.658,17.117,17.117,0,0,1,5.629-3.71,18.38,18.38,0,0,1,7.087-1.341h18.158v8.007h-18.158a10.453,10.453,0,0,0-3.979.734,8.863,8.863,0,0,0-5.049,5.144,10.746,10.746,0,0,0-.7,3.965,11.059,11.059,0,0,0,.7,3.989,8.9,8.9,0,0,0,1.981,3.1,8.986,8.986,0,0,0,3.072,2.022,10.537,10.537,0,0,0,3.99.705h18.158v8.017Zm-37.256,0h-18.162v-8.017h18.162a10.538,10.538,0,0,0,3.989-.706,8.828,8.828,0,0,0,5.026-5.13,11.055,11.055,0,0,0,.705-3.989,10.848,10.848,0,0,0-.705-3.965,9.221,9.221,0,0,0-1.981-3.112,9.09,9.09,0,0,0-3.072-2.032,10.449,10.449,0,0,0-3.961-.735h-18.162v-8.006h18.162a18.389,18.389,0,0,1,7.086,1.341,17.15,17.15,0,0,1,5.654,3.712,16.841,16.841,0,0,1,3.715,5.657,18.718,18.718,0,0,1,1.341,7.139,18.827,18.827,0,0,1-1.324,7.126,16.843,16.843,0,0,1-3.7,5.645,17.244,17.244,0,0,1-5.645,3.726,18.512,18.512,0,0,1-6.927,1.345Zm37.426-13.7v-8.044h8.055v8.044Zm-45.688,0v-8.044h8.076l-.018,8.044Z" transform="translate(1529 3914)" fill="#26538a"/>
  </g>
</svg>
